<svg xmlns="http://www.w3.org/2000/svg" viewBox="0 0 1276.5 541.45"><defs><style>.cls-1{fill:#fff;stroke-width:10px;}.cls-1,.cls-4{stroke:#424242;stroke-miterlimit:10;}.cls-2,.cls-3{fill:#424242;}.cls-3{font-size:53.26px;font-family:MyriadPro-Regular, Myriad Pro;}.cls-4{fill:none;opacity:0.2;}</style></defs>

<g id="Layer_2" data-name="Layer 2">
<rect id="a-key" class="cls-1" x="5" y="5" width="126.65" height="429.43"/>
<rect id="s-key" class="cls-1" x="131.65" y="5" width="126.65" height="429.43"/>
<rect id="d-key" class="cls-1" x="258.3" y="5" width="126.65" height="429.43"/>
<rect id="f-key" class="cls-1" x="384.95" y="5" width="126.65" height="429.43"/>
<rect id="g-key" class="cls-1" x="511.6" y="5" width="126.65" height="429.43"/>
<rect id="h-key" class="cls-1" x="638.25" y="5" width="126.65" height="429.43"/>
<rect id="j-key" class="cls-1" x="764.9" y="5" width="126.65" height="429.43"/>
<rect id="k-key" class="cls-1" x="891.55" y="5" width="126.65" height="429.43"/>
<rect id="l-key" class="cls-1" x="1018.2" y="5" width="126.65" height="429.43"/>
<rect id=";-key" class="cls-1" x="1144.85" y="5" width="126.65" height="429.43"/>
</g>

<g id="Layer_3" data-name="Layer 3"><rect class="cls-2" x="101.54" y="5" width="63.25" height="253"/><rect class="cls-2" x="228.04" y="5" width="63.25" height="253"/><rect class="cls-2" x="484.36" y="5" width="63.25" height="253"/><rect class="cls-2" x="607.53" y="5" width="63.25" height="253"/><rect class="cls-2" x="737.36" y="5" width="63.25" height="253"/><rect class="cls-2" x="990.36" y="5" width="63.25" height="253"/><rect class="cls-2" x="1116.86" y="5" width="63.25" height="253"/><text class="cls-3" transform="translate(52.16 523.75)">A</text><text class="cls-3" transform="translate(181.62 522.65)">S</text><text class="cls-3" transform="translate(302.57 522.64)">D</text><text class="cls-3" transform="translate(430.18 523.75)">F</text><text class="cls-3" transform="translate(557.79 522.28)">G</text><text class="cls-3" transform="translate(681.7 524.5)">H</text><text class="cls-3" transform="translate(820.77 521.9)">J</text><text class="cls-3" transform="translate(938.76 521.9)">K</text><text class="cls-3" transform="translate(1072.66 521.17)">L</text><text class="cls-3" transform="translate(1202.12 516.73)">;</text><circle class="cls-4" cx="68.25" cy="504.34" r="36.62"/><circle class="cls-4" cx="194.75" cy="504.34" r="36.62"/><circle class="cls-4" cx="317.92" cy="504.34" r="36.62"/><circle class="cls-4" cx="444.42" cy="504.34" r="36.62"/><circle class="cls-4" cx="577.57" cy="504.34" r="36.62"/><circle class="cls-4" cx="700.74" cy="504.34" r="36.62"/><circle class="cls-4" cx="830.57" cy="504.34" r="36.62"/><circle class="cls-4" cx="953.74" cy="504.34" r="36.62"/><circle class="cls-4" cx="1083.57" cy="504.34" r="36.62"/><circle class="cls-4" cx="1206.74" cy="504.34" r="36.62"/></g>

</svg>